# xmcd
#
# Track frame offsets:
#	150
#	16375
#	30822
#	47902
#	59570
#	72025
#	90127
#	102330
#	115790
#	142937
#	158847
# Disc length: 2194 seconds
# Revision: 1
# Processed by: cddbd v1.5.2PL0 Copyright (c) Steve Scherf et al.
#
# Submitted via: libkcddb 0.21
#
DISCID=7f08900b
DTITLE=Cornerstone - Dust
DYEAR=1993
DGENRE=Unknown
TTITLE0=Little Prayer
TTITLE1=Doing my best
TTITLE2=Hello Sunshine
TTITLE3=Wen I get to heaven
TTITLE4=The deeper Love
TTITLE5=Resurection blues
TTITLE6=Train to Jordan
TTITLE7=Rock of love
TTITLE8=Give me fire
TTITLE9=Greed
TTITLE10=Whisky and women
EXTD=
EXTT0=
EXTT1=
EXTT2=
EXTT3=
EXTT4=
EXTT5=
EXTT6=
EXTT7=
EXTT8=
EXTT9=
EXTT10=
PLAYORDER=
